<?xml version="1.0" encoding="UTF-8" standalone="no"?>
<!-- Created with Inkscape (http://www.inkscape.org/) -->

<svg
   width="153.69594mm"
   height="108.10677mm"
   viewBox="0 0 153.69594 108.10677"
   version="1.1"
   id="svg3172"
   xml:space="preserve"
   inkscape:export-filename="nuvemesol.svg"
   inkscape:export-xdpi="96"
   inkscape:export-ydpi="96"
   xmlns:inkscape="http://www.inkscape.org/namespaces/inkscape"
   xmlns:sodipodi="http://sodipodi.sourceforge.net/DTD/sodipodi-0.dtd"
   xmlns="http://www.w3.org/2000/svg"
   xmlns:svg="http://www.w3.org/2000/svg"><sodipodi:namedview
     id="namedview3174"
     pagecolor="#242424"
     bordercolor="#000000"
     borderopacity="0.25"
     inkscape:showpageshadow="2"
     inkscape:pageopacity="0"
     inkscape:pagecheckerboard="0"
     inkscape:deskcolor="#d1d1d1"
     inkscape:document-units="mm"
     showgrid="false" /><defs
     id="defs3169" /><g
     inkscape:label="Camada 1"
     inkscape:groupmode="layer"
     id="layer1"
     transform="translate(-24.292262,-104.60923)"><path
       style="fill:#ffffff;stroke:none;stroke-width:1.85;stroke-dasharray:none;stroke-opacity:1"
       d="m 119.58556,105.385 c -2.9014,1.25992 -2.24599,11.57324 2.03127,9.44515 2.79567,-1.39071 2.24123,-11.30047 -2.03127,-9.44515 m -29.726973,12.46563 c -1.63422,0.13542 -2.55453,1.83141 -1.93921,3.31478 0.74391,1.7934 3.96989,5.27448 6.09441,4.97484 5.1753,-0.72936 -1.17362,-8.537 -4.1552,-8.28962 m 60.877323,-0.0282 c -2.08562,0.2845 -4.86229,3.22836 -5.56225,5.12481 -0.66165,1.79162 0.71214,3.4784 2.59285,3.1942 1.87595,-0.28331 4.83199,-3.234 5.46305,-4.97602 0.61028,-1.68531 -0.62453,-3.59809 -2.49365,-3.34299 m -80.775483,70.75513 c 0,8.50759 2.36863,16.15635 10.39394,20.52062 6.83031,3.7139 15.67525,2.34606 23.163633,2.34606 h 42.16972 c 10.61786,0 20.98626,-0.51673 27.18343,-10.69091 6.87692,-11.28961 2.646,-27.16294 -9.66221,-32.70677 -3.16719,-1.42665 -6.34298,-2.039 -9.80001,-2.0387 -1.28766,0 -3.5081,0.58414 -4.3316,-0.64235 -1.21045,-1.8032 -0.21174,-3.48524 0.36884,-5.29705 0.88615,-2.76508 1.44832,-5.70924 1.57542,-8.61212 0.46684,-10.66062 -5.40663,-21.45637 -14.53994,-26.88973 -11.37899,-6.76942 -25.83845,-5.4001 -35.93334,3.05909 -2.288153,1.91724 -4.274873,4.33695 -5.804863,6.90336 -0.66314,1.11245 -1.15343,3.08344 -2.54147,3.4692 -1.50059,0.41724 -7.50502,1.21015 -8.82624,0.62868 -1.20302,-0.52949 -2.11442,-2.2825 -3.02582,-3.20578 -1.81568,-1.83973 -3.94822,-3.39378 -6.23192,-4.60749 -7.17449,-3.8128 -16.23029,-3.7929 -23.46061,-0.15413 -6.18057,3.11046 -10.79631,8.8405 -12.75893,15.45134 -0.65381,2.20233 -0.2412,5.06037 -1.08088,7.0952 -0.67825,1.64373 -4.05583,2.47792 -5.46323,3.52474 -2.9874,2.22193 -5.24959,5.41554 -6.31909,8.98007 -2.75221,9.1734 2.36437,19.35946 11.66455,22.14266 3.90295,1.16798 8.14297,0.72401 12.17576,0.72401 h 21.08486 M 145.09378,157.6927 c -2.22787,-1.27697 -3.91466,-3.85496 -5.9394,-5.50463 -3.70113,-3.01602 -8.37781,-5.09808 -13.06667,-5.95127 -3.67708,-0.66878 -7.60629,-0.68303 -11.28485,0.0107 -1.54692,0.29162 -4.36962,1.90239 -5.85357,1.43496 -1.39933,-0.44071 -2.57176,-2.63205 -3.64976,-3.59868 -2.18927,-1.96357 -4.71945,-3.39675 -7.423943,-4.50622 5.547383,-15.152 27.489893,-18.29097 38.903033,-8.52304 5.5079,4.7138 8.88742,11.34336 9.19449,18.62001 0.11433,2.71044 -0.66641,5.3407 -0.87933,8.01818 m -40.68487,-7.12727 c -5.030363,2.86605 -9.097063,7.84386 -11.490043,13.06667 -0.86062,1.87804 -1.11186,5.47583 -2.44911,6.9482 -0.69224,0.76232 -2.34488,0.49267 -3.28508,0.65868 -2.41348,0.42645 -4.68946,1.21698 -6.83031,2.41021 -2.52513,1.40763 -4.78181,3.38575 -6.48612,5.72231 -0.80182,1.09908 -1.30102,2.78765 -2.31517,3.68153 -0.78697,0.69343 -2.10968,0.47605 -3.0775,0.47605 h -8.01819 c -9.42704,0 -25.76573,3.4003 -30.15298,-7.72122 -2.2336,-5.66202 -0.21729,-12.25743 4.91055,-15.57666 1.85303,-1.19946 5.05398,-1.2645 6.31289,-3.14877 1.04038,-1.55701 0.45047,-4.14332 0.52911,-5.92306 0.11255,-2.548 0.98089,-5.17945 2.16218,-7.42425 5.25556,-9.98709 18.67459,-13.99767 28.41401,-7.99888 2.08265,1.28291 3.92416,2.80369 5.44376,4.73221 0.98534,1.25084 1.86378,3.37536 3.46979,3.92535 1.86616,0.63878 4.86407,-1.01237 6.82585,-1.20213 5.65164,-0.54702 13.453623,1.83527 16.036363,7.37376 m 53.46734,-2.18184 c -1.93149,0.64264 -2.26885,3.16748 -0.57434,4.3028 1.4798,0.99158 5.46513,0.92743 7.09045,0.28628 2.0185,-0.79588 2.24123,-3.3914 0.28836,-4.43287 -1.47327,-0.78579 -5.23796,-0.67739 -6.80447,-0.15621 m -38.32188,2.26677 c 8.3995,-0.9506 17.58834,4.36991 22.06605,11.19992 1.54632,2.35853 2.5183,8.1928 4.97127,9.49472 1.89734,1.00702 6.08521,-0.33884 8.30209,-0.2842 5.23766,0.12859 10.23833,3.19688 13.19437,7.41979 7.53175,10.76011 0.66907,26.14344 -12.30346,27.82934 -5.85179,0.76024 -12.21259,0.0858 -18.11516,0.0858 h -35.93334 c -7.052733,0 -15.555573,1.49168 -21.381823,-3.36348 -8.21686,-6.84723 -7.09847,-20.4731 2.67273,-25.36241 1.8525,-0.92684 3.8615,-1.5389 5.93939,-1.56384 1.73757,-0.0208 4.2143,0.4805 5.51473,-0.95981 1.0097,-1.11809 0.90487,-2.70569 1.15611,-4.08987 0.41041,-2.26142 1.20272,-4.48097 2.22905,-6.53333 4.323283,-8.64509 12.469753,-12.82939 21.687993,-13.87265 z"
       id="path3668-5" /><path
       id="path3668"
       style="fill:none;stroke:#000000;stroke-width:1.85;stroke-dasharray:none;stroke-opacity:1"
       d="M 99.556363,163.40766 C 104.03818,155.749 111.76995,151.97974 120.45254,150.9971 v 2e-5 0 c 8.39949,-0.9506 17.58834,4.36992 22.06605,11.19992 1.54632,2.35853 2.5183,8.1928 4.97127,9.49472 1.89734,1.00702 6.08521,-0.33884 8.30209,-0.2842 5.23765,0.12859 10.23833,3.19688 13.19437,7.41979 7.53174,10.7601 0.66906,26.14344 -12.30346,27.82934 -5.85178,0.76024 -12.2126,0.0858 -18.11516,0.0858 h -20.99828" /><path
       id="path4897"
       style="fill:none;stroke:#000000;stroke-width:1.85;stroke-dasharray:none;stroke-opacity:1"
       d="m 117.56942,206.74249 h -14.93506 c -7.052737,0 -15.55559,1.49168 -21.381834,-3.36348 -8.216852,-6.84722 -7.09846,-20.4731 2.67273,-25.36241 1.852498,-0.92684 3.861502,-1.5389 5.93939,-1.56384 1.737568,-0.0208 4.214301,0.4805 5.51473,-0.95981 1.009699,-1.11809 0.90487,-2.70569 1.15611,-4.08987 0.41041,-2.26142 1.202721,-4.48097 2.22905,-6.53333 0.251213,-0.50234 0.515336,-0.98962 0.791827,-1.46209" /><path
       id="path4895"
       style="fill:none;stroke:#000000;stroke-width:1.85;stroke-dasharray:none;stroke-opacity:1"
       d="m 158.77442,148.73035 c -1.93149,0.64264 -2.26885,3.16748 -0.57434,4.3028 1.4798,0.99158 5.46513,0.92743 7.09045,0.28628 2.0185,-0.79588 2.24123,-3.3914 0.28836,-4.43287 -1.47327,-0.78579 -5.23796,-0.67739 -6.80447,-0.15621" /><path
       id="path4889"
       style="fill:none;stroke:#000000;stroke-width:1.85;stroke-dasharray:none;stroke-opacity:1"
       d="m 145.99195,158.03945 c -2.22787,-1.27697 -3.91466,-3.85496 -5.9394,-5.50463 -3.70113,-3.01602 -8.37781,-5.09808 -13.06667,-5.95127 -3.67708,-0.66878 -7.60629,-0.68303 -11.28485,0.0107 -1.54692,0.29162 -4.36962,1.90239 -5.85357,1.43496 -1.39933,-0.44071 -2.57176,-2.63205 -3.64976,-3.59868 -2.18927,-1.96357 -4.71945,-3.39675 -7.423954,-4.50622 5.547384,-15.15198 27.489914,-18.29096 38.903044,-8.52304 5.50789,4.7138 8.88742,11.34337 9.19449,18.62001 0.11433,2.71044 -0.66641,5.3407 -0.87933,8.01818" /><path
       id="path4885"
       style="fill:none;stroke:#000000;stroke-width:1.85;stroke-dasharray:none;stroke-opacity:1"
       d="m 119.66751,211.791 26.91838,-1e-5 c 10.61785,0 20.98627,-0.51674 27.18343,-10.69091 6.87691,-11.2896 2.64599,-27.16295 -9.66221,-32.70677 -3.16719,-1.42665 -6.34298,-2.039 -9.80001,-2.0387 -1.28766,0 -3.5081,0.58414 -4.3316,-0.64235 -1.21045,-1.8032 -0.21174,-3.48524 0.36884,-5.29705 0.88615,-2.76508 1.44832,-5.70924 1.57542,-8.61212 0.46684,-10.66061 -5.40664,-21.45638 -14.53994,-26.88973 -11.37898,-6.76941 -25.83846,-5.40009 -35.93334,3.05909 -2.288162,1.91724 -4.274886,4.33695 -5.804874,6.90336 -0.663139,1.11245 -1.153431,3.08344 -2.54147,3.4692 -0.646365,0.17972 -2.128365,0.42915 -3.711777,0.60841" /><path
       id="path4883"
       style="fill:none;stroke:#000000;stroke-width:1.85;stroke-dasharray:none;stroke-opacity:1"
       d="m 151.63408,118.16918 c -2.08562,0.2845 -4.86229,3.22836 -5.56225,5.12481 -0.66165,1.79162 0.71214,3.4784 2.59285,3.1942 1.87595,-0.28331 4.83199,-3.234 5.46305,-4.97602 0.61028,-1.68531 -0.62453,-3.59809 -2.49365,-3.34299" /><path
       id="path4881"
       style="fill:none;stroke:#000000;stroke-width:1.85;stroke-dasharray:none;stroke-opacity:1"
       d="m 90.756746,118.19738 c -1.634218,0.13542 -2.554529,1.83141 -1.93921,3.31478 0.743909,1.7934 3.969892,5.27448 6.09441,4.97484 5.175294,-0.72936 -1.173623,-8.537 -4.1552,-8.28962" /><path
       id="path4879"
       style="fill:none;stroke:#000000;stroke-width:1.85;stroke-dasharray:none;stroke-opacity:1"
       d="m 120.48373,105.73175 c -2.9014,1.25992 -2.24599,11.57324 2.03127,9.44515 2.79567,-1.39071 2.24123,-11.30047 -2.03127,-9.44515" /></g></svg>
