<?xml version="1.0" encoding="UTF-8" standalone="no"?>
<!-- Created with Inkscape (http://www.inkscape.org/) -->

<svg
   width="658.74011"
   height="372.13123"
   viewBox="0 0 174.29165 98.45972"
   version="1.1"
   id="svg5"
   xml:space="preserve"
   inkscape:export-filename="nuvens.svg"
   inkscape:export-xdpi="74.435013"
   inkscape:export-ydpi="74.435013"
   xmlns:inkscape="http://www.inkscape.org/namespaces/inkscape"
   xmlns:sodipodi="http://sodipodi.sourceforge.net/DTD/sodipodi-0.dtd"
   xmlns="http://www.w3.org/2000/svg"
   xmlns:svg="http://www.w3.org/2000/svg"><sodipodi:namedview
     id="namedview7"
     pagecolor="#414141"
     bordercolor="#000000"
     borderopacity="0.25"
     inkscape:showpageshadow="2"
     inkscape:pageopacity="0"
     inkscape:pagecheckerboard="0"
     inkscape:deskcolor="#d1d1d1"
     inkscape:document-units="mm"
     showgrid="false" /><defs
     id="defs2" /><g
     inkscape:label="Camada 1"
     inkscape:groupmode="layer"
     id="layer1"
     transform="translate(-164.70346,-98.662323)"><path
       id="path1584-3"
       style="display:inline;fill:#ececec;stroke:none;stroke-width:1.84143;stroke-linecap:square;stroke-linejoin:round;stroke-dasharray:none;stroke-opacity:1;paint-order:normal"
       d="m 286.67343,170.22258 h 20.63814 c 9.71741,0 19.14487,-0.0479 26.04585,-8.09849 1.9768,-2.30624 3.47425,-4.96073 4.43248,-7.83727 6.01379,-18.056 -11.52234,-35.24757 -29.43336,-29.52035 -5.67577,-23.96272 -36.01147,-33.60043 -55.38335,-19.65953 -4.23237,3.04583 -7.85214,6.98693 -10.36973,11.56101 -0.93421,1.69703 -1.76391,3.41209 -2.45359,5.22485 -0.26962,0.70926 -0.3924,1.90262 -1.13197,2.29944 -0.79365,0.42609 -2.17848,-0.11075 -3.02544,-0.18993 -2.33394,-0.21786 -4.70445,-0.46004 -7.05353,-0.23641 -6.85787,0.65258 -13.2207,2.95465 -18.80945,7.01198 -4.04064,2.93325 -7.44199,6.85344 -9.84568,11.23056 -0.97078,1.7673 -1.80362,6.2348 -3.34965,7.37304 -0.84095,0.61915 -2.58082,-0.17032 -3.52415,-0.27589 -2.93155,-0.32812 -5.70795,-0.39657 -8.621,0.16668 -11.61972,2.2459 -18.77422,13.24525 -18.27669,24.6077 0.43088,9.83944 8.09253,18.46226 17.49296,20.80143 7.00614,1.7435 15.27874,0.62046 22.46682,0.62046 h 43.36621 c 8.28841,0 19.00902,1.82606 26.64669,-1.89639 6.2949,-3.0683 10.47085,-9.40966 10.94866,-16.39058 0.16041,-2.33864 -0.56062,-4.50355 -0.76022,-6.79231 m -19.33192,-13.84583 c -2.33758,-12.54666 -9.34619,-26.18926 -22.72807,-30.04284 0.21396,-4.68015 3.90976,-9.83655 7.05747,-13.06211 11.60411,-11.89174 30.40988,-12.41371 42.83981,-1.49274 3.47946,3.05706 6.02448,7.14707 7.71969,11.41996 0.8292,2.08965 0.97835,6.09372 3.00271,7.3508 2.04555,1.27043 5.83015,-1.31639 8.08701,-1.55803 5.32229,-0.57029 10.33656,1.01387 14.36727,4.50747 9.43947,8.18133 7.1643,24.28795 -4.17883,29.58543 -7.15046,3.33943 -17.09959,1.65182 -24.818,1.65182 h -9.9272 c -1.38721,0 -3.37394,0.35894 -4.67885,-0.15753 -1.69363,-0.67036 -3.01187,-2.98156 -4.46462,-4.10594 -3.53357,-2.73546 -7.84065,-4.09575 -12.27839,-4.09629 m -37.35763,-27.35597 c 12.41685,-1.46975 24.94811,7.44072 29.67007,18.47376 1.23776,2.89246 1.88982,5.78024 2.31223,8.88221 0.21423,1.57375 -0.1178,3.36117 1.07346,4.61251 1.59592,1.67613 5.07071,0.64109 7.17554,0.95171 3.93221,0.58074 7.68812,3.00141 9.6981,6.45292 4.8045,8.249 0.58021,19.4756 -9.17563,21.34062 -7.27765,1.39112 -15.58911,0.34247 -22.98931,0.34247 h -44.93365 c -8.836,0 -18.5593,1.5194 -25.57833,-5.03909 -10.45144,-9.76602 -4.88699,-27.73711 8.85884,-30.61678 3.07082,-0.64343 6.15793,-0.35111 9.14349,0.54234 1.48751,0.4449 3.49175,1.80414 4.96254,0.73957 1.46323,-1.05881 1.51183,-2.7109 1.97839,-4.28986 0.81377,-2.75323 1.87623,-5.37428 3.36506,-7.83727 5.40065,-8.93527 14.38635,-13.36489 24.4392,-14.55511 z" /><path
       id="path1584"
       style="fill:none;stroke:#000000;stroke-width:1.865;stroke-linecap:square;stroke-linejoin:round;stroke-dasharray:none;stroke-opacity:1;paint-order:normal"
       d="m 278.0599,186.58661 c -1.8012,1.71018 -4.10656,2.95908 -6.84098,3.48182 -7.37075,1.40891 -15.78849,0.34687 -23.28333,0.34687 h -45.50833 c -8.949,0 -18.7967,1.53881 -25.90549,-5.10355 -10.58509,-9.89091 -4.94947,-28.09187 8.97215,-31.00837 3.1101,-0.65167 6.23668,-0.3556 9.26042,0.54927 1.50654,0.45059 3.53642,1.82722 5.02602,0.74904 1.48194,-1.07236 1.53115,-2.74558 2.00369,-4.34472 0.82418,-2.78845 1.90024,-5.44301 3.4081,-7.9375 5.46972,-9.04954 14.57035,-13.53582 24.75177,-14.74126 v 0 c 2.58897,-0.30645 5.18286,-0.16733 7.71164,0.3444" /><path
       id="path3097"
       style="fill:none;stroke:#000000;stroke-width:1.865;stroke-linecap:square;stroke-linejoin:round;stroke-dasharray:none;stroke-opacity:1;paint-order:normal"
       d="m 237.65556,128.92261 c 9.75445,1.97391 18.5401,9.49191 22.33789,18.36561 1.25359,2.92946 1.91399,5.85417 2.34182,8.99583 0.21696,1.59385 -0.11932,3.40413 1.08718,4.67148 1.61633,1.69757 5.13556,0.64929 7.26731,0.96388 3.9825,0.58817 7.78642,3.0398 9.82212,6.53547 3.51931,6.04241 2.2553,13.66233 -2.45198,18.13173" /><path
       id="path3091"
       style="fill:none;stroke:#000000;stroke-width:1.865;stroke-linecap:square;stroke-linejoin:round;stroke-dasharray:none;stroke-opacity:1;paint-order:normal"
       d="m 233.70753,123.28909 c -1.60518,-0.12398 -3.21849,-0.18562 -4.82194,-0.033 -6.94557,0.66093 -13.38978,2.99244 -19.05,7.10168 -4.09231,2.97074 -7.53719,6.94108 -9.97162,11.37418 -0.98319,1.7899 -1.82668,6.31454 -3.39248,7.46733 -0.8517,0.62706 -2.61382,-0.17251 -3.56923,-0.2794 -2.96903,-0.33232 -5.78094,-0.40164 -8.73125,0.16881 -11.76832,2.27462 -19.01433,13.41464 -18.51043,24.92242 0.43637,9.96526 8.19603,18.69837 17.71668,21.06745 7.09574,1.76583 15.47416,0.62839 22.75416,0.62839 h 43.92084 c 8.39442,0 19.25215,1.84943 26.9875,-1.92062 1.51106,-0.73653 2.90157,-1.65928 4.15023,-2.73274" /></g></svg>
